<mxfile host="Electron" modified="2023-08-30T08:47:16.838Z" agent="Mozilla/5.0 (Windows NT 10.0; Win64; x64) AppleWebKit/537.36 (KHTML, like Gecko) draw.io/21.5.1 Chrome/112.0.5615.204 Electron/24.6.0 Safari/537.36" etag="uZPwl6nfFmJNOuZ34dYh" version="21.5.1" type="device">
  <diagram name="第 1 页" id="AzoRZupakzmRHhHDm-Tw">
    <mxGraphModel dx="1036" dy="606" grid="1" gridSize="10" guides="1" tooltips="1" connect="1" arrows="1" fold="1" page="1" pageScale="1" pageWidth="827" pageHeight="1169" math="0" shadow="0">
      <root>
        <mxCell id="0" />
        <mxCell id="1" parent="0" />
        <mxCell id="vAN-sGZBGwFAU7a3u2m_-16" value="" style="rounded=0;whiteSpace=wrap;html=1;" parent="1" vertex="1">
          <mxGeometry x="20" y="60" width="740" height="370" as="geometry" />
        </mxCell>
        <mxCell id="vAN-sGZBGwFAU7a3u2m_-1" value="" style="ellipse;html=1;shape=startState;fillColor=#000000;strokeColor=#ff0000;" parent="1" vertex="1">
          <mxGeometry x="99" y="230" width="30" height="30" as="geometry" />
        </mxCell>
        <mxCell id="vAN-sGZBGwFAU7a3u2m_-2" value="" style="ellipse;html=1;shape=endState;fillColor=#000000;strokeColor=#ff0000;" parent="1" vertex="1">
          <mxGeometry x="645" y="230" width="30" height="30" as="geometry" />
        </mxCell>
        <mxCell id="vAN-sGZBGwFAU7a3u2m_-3" value="ユーザーログイン画面" style="html=1;whiteSpace=wrap;" parent="1" vertex="1">
          <mxGeometry x="189" y="220" width="130" height="50" as="geometry" />
        </mxCell>
        <mxCell id="vAN-sGZBGwFAU7a3u2m_-4" value="講座一覧画面" style="html=1;whiteSpace=wrap;" parent="1" vertex="1">
          <mxGeometry x="429" y="220" width="110" height="50" as="geometry" />
        </mxCell>
        <mxCell id="vAN-sGZBGwFAU7a3u2m_-5" value="" style="endArrow=classic;html=1;rounded=0;exitX=1;exitY=0.5;exitDx=0;exitDy=0;entryX=0;entryY=0.5;entryDx=0;entryDy=0;" parent="1" source="vAN-sGZBGwFAU7a3u2m_-3" target="vAN-sGZBGwFAU7a3u2m_-4" edge="1">
          <mxGeometry width="50" height="50" relative="1" as="geometry">
            <mxPoint x="359" y="380" as="sourcePoint" />
            <mxPoint x="409" y="330" as="targetPoint" />
          </mxGeometry>
        </mxCell>
        <mxCell id="vAN-sGZBGwFAU7a3u2m_-6" value="[ログインボタン]&lt;br&gt;クリック" style="text;html=1;align=center;verticalAlign=middle;resizable=0;points=[];autosize=1;strokeColor=none;fillColor=none;" parent="1" vertex="1">
          <mxGeometry x="319" y="190" width="110" height="40" as="geometry" />
        </mxCell>
        <mxCell id="vAN-sGZBGwFAU7a3u2m_-8" value="" style="endArrow=classic;html=1;rounded=0;exitX=1;exitY=0.5;exitDx=0;exitDy=0;entryX=0;entryY=0.5;entryDx=0;entryDy=0;" parent="1" source="vAN-sGZBGwFAU7a3u2m_-4" edge="1">
          <mxGeometry width="50" height="50" relative="1" as="geometry">
            <mxPoint x="419" y="390" as="sourcePoint" />
            <mxPoint x="649" y="245" as="targetPoint" />
          </mxGeometry>
        </mxCell>
        <mxCell id="vAN-sGZBGwFAU7a3u2m_-9" value="" style="endArrow=classic;html=1;rounded=0;exitX=1;exitY=0.5;exitDx=0;exitDy=0;entryX=0;entryY=0.5;entryDx=0;entryDy=0;" parent="1" source="vAN-sGZBGwFAU7a3u2m_-1" target="vAN-sGZBGwFAU7a3u2m_-3" edge="1">
          <mxGeometry width="50" height="50" relative="1" as="geometry">
            <mxPoint x="419" y="390" as="sourcePoint" />
            <mxPoint x="469" y="340" as="targetPoint" />
          </mxGeometry>
        </mxCell>
        <mxCell id="vAN-sGZBGwFAU7a3u2m_-11" value="[購入履歴画面ボタン]&lt;br&gt;クリック" style="text;html=1;align=center;verticalAlign=middle;resizable=0;points=[];autosize=1;strokeColor=none;fillColor=none;" parent="1" vertex="1">
          <mxGeometry x="524" y="190" width="140" height="40" as="geometry" />
        </mxCell>
        <mxCell id="vAN-sGZBGwFAU7a3u2m_-12" value="ユーザー" style="text;html=1;align=center;verticalAlign=middle;resizable=0;points=[];autosize=1;strokeColor=none;fillColor=none;" parent="1" vertex="1">
          <mxGeometry x="79" y="195" width="70" height="30" as="geometry" />
        </mxCell>
        <mxCell id="vAN-sGZBGwFAU7a3u2m_-13" value="&lt;span style=&quot;font-size: 15px;&quot;&gt;購入履歴&lt;/span&gt;" style="text;html=1;align=center;verticalAlign=middle;resizable=0;points=[];autosize=1;strokeColor=none;fillColor=none;" parent="1" vertex="1">
          <mxGeometry x="74" y="120" width="80" height="30" as="geometry" />
        </mxCell>
        <mxCell id="vAN-sGZBGwFAU7a3u2m_-14" value="購入履歴画面" style="text;html=1;align=center;verticalAlign=middle;resizable=0;points=[];autosize=1;strokeColor=none;fillColor=none;" parent="1" vertex="1">
          <mxGeometry x="610" y="270" width="100" height="30" as="geometry" />
        </mxCell>
      </root>
    </mxGraphModel>
  </diagram>
</mxfile>
